<svg xmlns="http://www.w3.org/2000/svg" viewBox="291.38 237.06 1416.61 488.96" role="img" aria-label="Hiiato">
  <path fill="#ffffff" d="M1281.38,290.16v93h75v83h-75v146.5c0,4.54,4.98,14.31,8.51,17.49,5.2,4.7,19.17,9.01,25.99,9.01h40.5v77c-16.53,1.49-33.91,3.18-50.54,3.04-74.73-.62-107.93-30.49-110.51-105.49-1.68-48.82,1.35-98.64.05-147.55h-58v250h-85v-37c-1.77-.26-2.19-.06-3.46,1.04-3.28,2.84-7.21,8.57-11.01,11.99-47.15,42.34-123.19,43.71-176.05,10.99-110.23-68.23-108.12-247.89,6.5-310.54,55.44-30.3,130.87-25.02,176.05,20.99,2.18,2.22,3.48,6.38,6.97,6.53v-35.5l1.5-1.5h142.5v-68l86-25h0ZM946.17,456.46c-92.05,8.86-107.58,144.55-26.15,179.56,57.71,24.82,126.22-9.75,131.34-74.37,5.23-65.92-38.7-111.59-105.19-105.19h0Z"/>
  <polygon fill="#ffffff" points="383.38 250.16 383.38 435.16 556.38 435.16 556.38 384.16 648.38 384.16 648.38 716.16 556.38 716.16 556.38 523.16 383.38 523.16 383.38 716.16 291.38 716.16 291.38 250.16 383.38 250.16"/>
  <path fill="#ffffff" d="M1518.17,374.46c122.63-6.83,213.97,99.76,184.13,220.13-37.26,150.32-245.86,179.21-323.73,45.88-65.91-112.85,7.59-258.66,139.6-266.01h0ZM1519.17,458.46c-57.91,5.89-88.64,64.09-74.51,117.92,22.76,86.7,149.5,87.03,173.43,1,18.55-66.68-29.62-125.98-98.92-118.92h0Z"/>
  <rect fill="#ffffff" x="684.38" y="383.16" width="85" height="333"/>
  <path fill="#25CCF6" d="M719.15,237.44c45.71-5.23,76.87,44.84,51.45,83.45-23.56,35.79-79.14,30.53-94.99-9.47-12.93-32.63,8.66-69.99,43.54-73.98h0Z"/>
  <path fill="#25CCF6" d="M592.13,238.42c41.61-5.63,74.75,28.66,61.7,69.7-14.75,46.36-81.29,49.41-100.64,4.72-13.07-30.19,5.15-69.84,38.94-74.42Z"/>
</svg>
